<?xml version="1.0" encoding="utf-8"?>
<!-- Generator: Adobe Illustrator 25.0.1, SVG Export Plug-In . SVG Version: 6.00 Build 0)  -->
<svg version="1.1" id="Calque_1" xmlns="http://www.w3.org/2000/svg" xmlns:xlink="http://www.w3.org/1999/xlink" x="0px" y="0px"
	 viewBox="0 0 500 500" style="enable-background:new 0 0 500 500;" xml:space="preserve">
<style type="text/css">
	.st0{fill:#6D184E;}
</style>
<g>
	<path d="M-419.6,151.2c-63.7,0-93.2,45.2-93.2,85.4c0,32.4,19.1,61.5,54.8,61.5c4.8,0,9.3-0.6,13.5-2.2l-3.5-18.7
		c-2.8,0.6-5.9,1.1-9.1,1.1c-24.5,0-37.8-21.5-37.8-46.1c0-32.4,23-70.2,72.8-70.2c48.2,0,67.6,31.3,67.6,63.2
		c0,32.4-19.8,65.8-49.3,69.7c5.2-39.3,8.7-80.8,23.2-106.5l-19.8-6.7c-36.1,66.3-8.3,203.4-64.1,203.4c-12.2,0-22.8-7.8-22.8-22
		c0-10,7.2-20.9,18.5-22.2v-17.8c-21.9,0.9-34.1,18.2-34.1,35.9c0,22.2,13.9,36.7,39.1,36.7c39.8,0,51.3-41.7,58.2-89.5
		c43.7-1.7,70.8-41.7,70.8-80.8C-334.9,188-360.1,151.2-419.6,151.2z"/>
	<path d="M-313.3,233.6c9.6,0,15.2-9.1,15.2-16.9c0-6.1-3-11.3-10.2-11.3c-9.6,0-15.2,9.3-15.2,17.2
		C-323.6,228.4-320.3,233.6-313.3,233.6z"/>
	<path d="M-83.3,308c-5.3,1.7-33.1,59.5-33.1,22.5c0-23.5,7-51.1,14.3-84.1h-15.4l-2.4,12.2c-1.5-9.8-6.1-14.6-14.1-14.6
		c-15.3,0-28.5,24.8-34.2,50.2c-9.1,23.4-22,38.6-34.2,51.1c-1.5-1.5-3.5-3-5.4-4.4c15.9-12.8,27-42.4,27-65.4
		c0-17-6.3-30.4-21.5-30.4c-16.7,0-19.6,23.3-28.9,48.2l0,0l0,0c-9.1,23.9-22.2,39.3-34.5,51.9c-1.5-1.5-3.5-3-5.4-4.4
		c15.9-12.8,27-42.4,27-65.4c0-17-6.3-30.4-21.5-30.4c-16.7,0-19.6,23.3-28.9,48.2l0,0l0,0c-9.6,25-16.7,37.2-22.4,37.2
		c-2,0-4.4-1.1-4.4-7.4c0-17.8,6.3-43,13.9-76.9h-18.5c-3.7,15.7-13.2,50.2-13.2,74.3c0,15,3.9,25.9,15.6,25.9
		c17.8,0,25.4-25.2,35-50l0,0l0,0c8.9-23.2,11.7-35.2,19.3-35.2c3,0,5.4,2.6,5.4,9.6c0,17.4-9.3,54.1-19.1,66.3
		c-1.1-0.2-2.2-0.2-3.3-0.2c-1.7,0-5.2,0.4-6.9,0.6l-0.6,8.9c2,0.6,3.9,0.9,6.1,0.9c2.4,0,4.8-0.4,6.9-1.1c1.7,2.6,3,6.1,3.9,10
		c-12,12-23.5,24.1-23.5,40c0,8.7,5.2,14.8,13.3,14.8c18.9,0,29.8-20.4,29.8-40c0-7.2-1.5-14.1-4.6-20c13-14,27.2-30.5,36.6-54.6
		c0.1,0,0.2,0,0.2,0c8.9-23.2,11.7-35.2,19.3-35.2c3,0,5.4,2.6,5.4,9.6c0,17.4-9.3,54.1-19.1,66.3c-1.1-0.2-2.2-0.2-3.3-0.2
		c-1.7,0-5.2,0.4-7,0.6l-0.6,8.9c2,0.6,3.9,0.9,6.1,0.9c2.4,0,4.8-0.4,7-1.1c1.7,2.6,3,6.1,3.9,10c-12,12-23.5,24.1-23.5,40
		c0,8.7,5.2,14.8,13.3,14.8c18.9,0,29.8-20.4,29.8-40c0-7.2-1.5-14.1-4.6-20c9.2-9.9,19-21.1,27.3-35.3c-0.1,1.4-0.1,2.8-0.1,4.2
		c0,15.9,4.4,27.6,15,27.6c12.6,0,20.2-11.5,25.2-24.8c0,1.1,0.1,2,0,2.8c-3.2,35.3,14,36.2,43.1,15c0,0,6.8-5.4,8.7-25.5
		C-78.3,302.9-83.3,308-83.3,308z M-286.6,402c-2.8,0-4.1-2-4.1-5.2c0-9.1,6.3-21.1,15.2-31.1c0,1.7,0.2,3.3,0.2,5
		C-275.3,386.1-279.9,402-286.6,402z M-223.2,402c-2.8,0-4.1-2-4.1-5.2c0-9.1,6.3-21.1,15.2-31.1c0,1.7,0.2,3.3,0.2,5
		C-211.9,386.1-216.4,402-223.2,402z M-148.6,329c-3.3,0-4.6-4.6-4.6-11.3c0-19.8,11.1-58,20.2-58c4.8,0,6.7,5.6,6.7,13.7
		C-126.2,293.6-138.6,329-148.6,329z"/>
	<path d="M-283.7,232h94.2c0,0,0,0,0.1,0c0,0,0,0,0.1,0h107.6c0.6,0,1.3-0.3,1.7-0.7s0.7-1.1,0.7-1.7c0-0.6-0.7-16.2-7.4-35.2
		c-6.2-17.7-18.9-41.7-44.5-55.8c-1.1-0.6-2.5-0.3-3.1,0.8l-54.1,84.7l-24.1-91.6c-0.2-0.6-0.6-1.1-1.1-1.5
		c-0.6-0.3-1.2-0.4-1.8-0.2c-27.6,8.1-48.6,27.8-60.6,56.9c-9,21.9-9.9,41.1-9.9,41.9c0,0.6,0.2,1.3,0.7,1.7
		C-285,231.7-284.4,232-283.7,232z M-131.7,143.7c39.4,23.2,46.2,72,47.3,83.6h-4.8c-6.5-45.2-36.6-72.1-45.4-79L-131.7,143.7z
		 M-136.7,151.6c8.6,6.9,37.1,32.6,43.5,75.6H-185L-136.7,151.6z M-269.8,227.2c1.8-11.9,12.6-69.4,56.9-77.4l20.3,77.4
		L-269.8,227.2L-269.8,227.2z M-271.7,189.3c11.3-27.3,24.6-41.2,55.2-53.3l2.4,9.1c-21.6,4-38.9,19.5-50.1,44.9
		c-7.3,16.6-9.9,32.3-10.6,37.3h-6.3C-280.6,221.4-278.6,206-271.7,189.3z"/>
	<path d="M-187.2,198.2c0.3,1,1.2,1.8,2.3,1.8h0.1c0.8,0,1.6-0.4,2-1.1l56.9-89.1c0.4-0.6,0.5-1.2,0.3-1.9c-0.2-0.6-0.6-1.2-1.1-1.5
		c-14.6-8.1-31.9-12.2-51.5-12.2c-11.8,0-22.8,1.5-32.8,4.4c-1.2,0.4-2,1.6-1.6,2.9L-187.2,198.2z M-183.9,191.9l-20.8-79.3
		c6.9-2.1,34.5-9.1,68.7,4.4L-183.9,191.9z M-178.2,99c17.8,0,33.5,3.5,46.9,10.4l-2.6,4.1c-35.8-14.3-64.1-7.3-71.9-4.8l-1.6-6.1
		C-195.3,99-188.6,99-178.2,99z"/>
	<ellipse cx="-215.9" cy="219.5" rx="4.5" ry="4.5"/>
	<ellipse cx="-173.4" cy="126.5" rx="10" ry="11.2"/>
	<ellipse cx="-143.8" cy="208.3" rx="10" ry="11.2"/>
	<path d="M-136.8,184c2-2,2.5-4.7,1.1-6.2s-4.2-1.1-6.3,0.9c-2,2-2.5,4.7-1.1,6.2C-141.6,186.3-138.8,185.9-136.8,184z"/>
	<ellipse transform="matrix(0.3964 -0.9181 0.9181 0.3964 -311.4365 -106.5946)" cx="-236.78" cy="183.55" rx="9.2" ry="13.1"/>
	<ellipse cx="-182.2" cy="161.1" rx="5.7" ry="4.4"/>
	<path d="M-153.8,121.2c-4.1,0-7.4,2.5-7.4,5.8c0,0.8,0.7,1.5,1.5,1.5s1.5-0.7,1.5-1.5c0-1.5,2.1-2.8,4.4-2.8s4.4,1.3,4.4,2.8
		c0,0.8,0.7,1.5,1.5,1.5s1.5-0.7,1.5-1.5C-146.4,123.8-149.6,121.2-153.8,121.2z"/>
	<path d="M-164.8,211.4c-1.6,0-3,1.3-3,2.9c0,1.6,1.3,2.9,3,2.9s3-1.3,3-2.9C-161.9,212.7-163.2,211.4-164.8,211.4z"/>
	<path d="M-253.5,200.7c0.4-0.7,0.2-1.6-0.5-2.1c-0.7-0.4-1.6-0.2-2.1,0.5c-2.1,3.2-4.3,10.8,2,16.4c0.3,0.2,0.6,0.4,1,0.4
		s0.8-0.2,1.1-0.5c0.5-0.6,0.5-1.6-0.1-2.1C-258,208-253.6,201-253.5,200.7z"/>
	<path d="M-211.6,188.9l-3.1-3.9c-0.5-0.6-1.5-0.8-2.1-0.2c-0.6,0.5-0.8,1.5-0.2,2.1l3.2,4l-3.6,3.2c-0.6,0.6-0.7,1.5-0.1,2.1
		c0.3,0.3,0.7,0.5,1.1,0.5c0.4,0,0.7-0.1,1-0.4l3.5-3.1l2.7,3.3c0.3,0.4,0.7,0.6,1.2,0.6c0.3,0,0.7-0.1,0.9-0.3
		c0.6-0.5,0.8-1.5,0.2-2.1l-2.8-3.4l3.5-3.1c0.6-0.6,0.7-1.5,0.1-2.1c-0.5-0.6-1.5-0.7-2.1-0.1L-211.6,188.9z"/>
	<path d="M-127.1,190c-0.7-0.4-1.6-0.2-2,0.5s-0.2,1.6,0.5,2.1c0.1,0,6.4,3.9,6.7,10.4c0,0.8,0.7,1.4,1.5,1.4c0,0,0,0,0.1,0
		c0.8,0,1.5-0.8,1.4-1.6C-119.4,194.8-126.8,190.2-127.1,190z"/>
	<path d="M-175.8,144.3c-6.6,2.1-9.2-5-9.3-5.3c-0.3-0.8-1.1-1.2-1.9-0.9c-0.8,0.3-1.2,1.1-0.9,1.9c1,2.9,4.3,7.7,9.8,7.7
		c1,0,2.1-0.2,3.3-0.5c0.8-0.2,1.2-1.1,1-1.9C-174.2,144.5-175,144.1-175.8,144.3z"/>
	<path d="M-231.5,204.4c-6.6,2.1-9.2-5-9.3-5.3c-0.3-0.8-1.1-1.2-1.9-0.9c-0.8,0.3-1.2,1.1-0.9,1.9c1,2.9,4.3,7.7,9.8,7.7
		c1,0,2.1-0.2,3.3-0.5c0.8-0.2,1.2-1.1,1-1.9S-230.7,204.1-231.5,204.4z"/>
	<path d="M-107.4,217.4h-9.9c-0.8,0-1.5,0.7-1.5,1.5s0.7,1.5,1.5,1.5h9.9c0.8,0,1.5-0.7,1.5-1.5S-106.5,217.4-107.4,217.4z"/>
	<path d="M-237.2,215.8h-9.9c-0.8,0-1.5,0.7-1.5,1.5s0.7,1.5,1.5,1.5h9.9c0.8,0,1.5-0.7,1.5-1.5S-236.4,215.8-237.2,215.8z"/>
	<path d="M-84.4,406h-96.5c-1.5,0-2.7,1.2-2.7,2.7s1.2,2.7,2.7,2.7h96.5c1.5,0,2.7-1.2,2.7-2.7S-82.9,406-84.4,406z"/>
	<path d="M-84.4,360.4h-96.5c-1.5,0-2.7,1.2-2.7,2.7s1.2,2.7,2.7,2.7h96.5c1.5,0,2.7-1.2,2.7-2.7S-82.9,360.4-84.4,360.4z"/>
	<path d="M-160.4,396.6c-0.7,0.4-1.4,0.6-2.2,0.6c-1.3,0-2.3-0.4-3-1.2s-1.4-2.1-2-3.8c-0.1-0.3-0.3-0.5-0.6-0.7s-0.6-0.3-1-0.3
		c-0.7,0-1.2,0.2-1.7,0.6s-0.7,1-0.7,1.7c0,0.5,0.2,1.2,0.6,2.1s1,1.6,1.7,2.4s1.7,1.4,2.9,2s2.5,0.8,3.9,0.8s2.7-0.2,3.9-0.7
		s2.2-1.1,3.1-1.9c0.9-0.8,1.5-1.7,2-2.8s0.7-2.1,0.7-3.2c0-0.9-0.2-1.8-0.5-2.6c-0.3-0.8-0.8-1.5-1.5-2.2s-1.5-1.2-2.4-1.8
		c1-0.8,1.7-1.7,2.3-2.5s0.8-1.9,0.8-3.1c0-0.9-0.2-1.8-0.5-2.6c-0.4-0.8-0.9-1.5-1.6-2.1c-0.7-0.6-1.6-1.1-2.5-1.4s-2-0.5-3.2-0.5
		c-1.4,0-2.6,0.2-3.7,0.6s-2,0.9-2.7,1.5s-1.3,1.3-1.7,2s-0.6,1.4-0.6,2c0,0.7,0.2,1.2,0.6,1.6c0.4,0.4,0.9,0.6,1.3,0.6
		c0.4,0,0.8-0.1,1.1-0.2s0.5-0.4,0.7-0.6c0.2-0.5,0.4-1,0.7-1.5s0.5-1,0.8-1.3s0.7-0.6,1.1-0.8c0.5-0.2,1.1-0.3,1.8-0.3
		c1.1,0,2,0.3,2.6,1s1,1.5,1,2.4c0,1.2-0.4,2.2-1.2,2.8c-0.8,0.7-1.8,1-2.9,1h-0.8c-0.9,0-1.5,0.2-2,0.5c-0.4,0.4-0.7,0.8-0.7,1.4
		s0.2,1.1,0.5,1.4s0.9,0.5,1.5,0.5c0.1,0,0.5,0,1-0.1c0.5,0,0.9-0.1,1.1-0.1c1.4,0,2.5,0.4,3.2,1.2s1.2,1.9,1.2,3.3
		c0,1-0.2,1.8-0.7,2.5S-159.7,396.2-160.4,396.6z"/>
	<path d="M-145.4,397.7c0.2,0.6,0.4,1.2,0.7,1.6c0.3,0.5,0.6,0.8,1,1.1s1,0.4,1.6,0.4c0.8,0,1.5-0.2,2-0.6s0.9-0.9,1-1.4
		s0.5-1.4,0.8-2.6l4.4-16l4.3,16c0.4,1.2,0.6,2.1,0.8,2.6s0.5,1,1,1.4s1.2,0.6,2,0.6c0.9,0,1.5-0.2,2-0.6s0.8-0.9,1-1.5
		s0.5-1.5,0.8-2.7l4.4-18c0.3-1.1,0.4-1.9,0.4-2.4c0-0.7-0.2-1.3-0.7-1.8s-1.1-0.7-1.8-0.7s-1.2,0.2-1.6,0.5
		c-0.4,0.4-0.6,0.8-0.8,1.2s-0.3,1.1-0.5,1.9l-3.5,15.6l-4-14.6c-0.3-1.2-0.6-2.1-0.8-2.6s-0.5-1-1-1.5c-0.5-0.4-1.2-0.7-2.1-0.7
		c-0.9,0-1.6,0.2-2.1,0.6s-0.9,0.9-1.1,1.5c-0.2,0.6-0.5,1.4-0.8,2.5l-3.9,14.6l-3.5-15.6c-0.2-1.2-0.5-2.1-0.9-2.8
		c-0.3-0.6-1-1-2-1c-0.7,0-1.3,0.2-1.8,0.7s-0.7,1.1-0.7,1.8c0,0.5,0.1,1.3,0.4,2.4l4.4,18C-145.7,396.5-145.5,397-145.4,397.7z"/>
	<path d="M-111,400c0.4-0.5,0.8-1.4,1.3-2.7l1.3-3.4h10.9l1.3,3.4c0.2,0.4,0.4,0.9,0.6,1.4s0.5,0.9,0.7,1.2c0.2,0.3,0.5,0.5,0.8,0.6
		s0.7,0.2,1.1,0.2c0.7,0,1.4-0.3,1.9-0.8s0.8-1.1,0.8-1.7s-0.3-1.5-0.8-2.9l-7-17.2c-0.3-0.9-0.6-1.5-0.8-2.1
		c-0.2-0.5-0.5-1-0.8-1.5s-0.7-0.8-1.2-1.1s-1.1-0.4-1.9-0.4c-0.7,0-1.4,0.1-1.9,0.4s-0.9,0.7-1.2,1.1s-0.6,1-0.9,1.7
		s-0.5,1.3-0.7,1.8l-6.8,17.3c-0.3,0.7-0.5,1.2-0.6,1.6s-0.2,0.8-0.2,1.1c0,0.6,0.3,1.2,0.8,1.7s1.1,0.8,1.8,0.8
		C-111.9,400.7-111.3,400.5-111,400z M-103.1,378.8l4,11h-8L-103.1,378.8z"/>
</g>
<g>
	<path class="st0" d="M125.8,147.9c-63.7,0-93.2,45.2-93.2,85.4c0,32.4,19.1,61.5,54.8,61.5c4.8,0,9.3-0.6,13.5-2.2l-3.5-18.7
		c-2.8,0.6-5.9,1.1-9.1,1.1c-24.5,0-37.8-21.5-37.8-46.1c0-32.4,23-70.2,72.8-70.2c48.2,0,67.6,31.3,67.6,63.2
		c0,32.4-19.8,65.8-49.3,69.8c5.2-39.3,8.7-80.8,23.2-106.5l-19.8-6.7c-36.1,66.3-8.3,203.4-64.1,203.4c-12.2,0-22.8-7.8-22.8-22
		c0-10,7.2-20.9,18.5-22.2v-17.8c-22,0.9-34.1,18.2-34.1,35.9c0,22.2,13.9,36.7,39.1,36.7c39.8,0,51.3-41.7,58.2-89.5
		c43.7-1.7,70.8-41.7,70.8-80.8C210.6,184.6,185.4,147.9,125.8,147.9z"/>
	<path class="st0" d="M232.1,230.2c9.6,0,15.2-9.1,15.2-17c0-6.1-3-11.3-10.2-11.3c-9.6,0-15.2,9.3-15.2,17.2
		C221.9,225,225.1,230.2,232.1,230.2z"/>
	<path class="st0" d="M462.1,304.6c-5.3,1.7-33.1,59.5-33.1,22.5c0-23.5,7-51.1,14.3-84.1h-15.4l-2.4,12.2
		c-1.5-9.8-6.1-14.6-14.1-14.6c-15.3,0-28.5,24.8-34.2,50.2c-9.1,23.4-22,38.6-34.2,51.1c-1.5-1.5-3.5-3-5.4-4.4
		c15.9-12.8,27-42.4,27-65.4c0-17-6.3-30.4-21.5-30.4c-16.7,0-19.6,23.3-28.9,48.2l0,0l0,0c-9.1,23.9-22.2,39.3-34.5,51.9
		c-1.5-1.5-3.5-3-5.4-4.4c15.9-12.8,27-42.4,27-65.4c0-17-6.3-30.4-21.5-30.4c-16.7,0-19.6,23.3-28.9,48.2l0,0l0,0
		c-9.6,25-16.7,37.2-22.4,37.2c-2,0-4.4-1.1-4.4-7.4c0-17.8,6.3-43,13.9-76.9h-18.5c-3.7,15.7-13.2,50.2-13.2,74.3
		c0,15,3.9,25.9,15.6,25.9c17.8,0,25.4-25.2,35-50l0,0l0,0c8.9-23.2,11.7-35.2,19.3-35.2c3,0,5.4,2.6,5.4,9.6
		c0,17.4-9.3,54.1-19.1,66.3c-1.1-0.2-2.2-0.2-3.3-0.2c-1.7,0-5.2,0.4-7,0.6l-0.6,8.9c2,0.6,3.9,0.9,6.1,0.9c2.4,0,4.8-0.4,6.9-1.1
		c1.7,2.6,3,6.1,3.9,10c-11.9,12-23.5,24.1-23.5,40c0,8.7,5.2,14.8,13.3,14.8c18.9,0,29.8-20.4,29.8-40c0-7.2-1.5-14.1-4.6-20
		c13-14,27.2-30.5,36.6-54.6c0.1,0,0.2,0,0.2,0c8.9-23.2,11.7-35.2,19.3-35.2c3,0,5.4,2.6,5.4,9.6c0,17.4-9.3,54.1-19.1,66.3
		c-1.1-0.2-2.2-0.2-3.3-0.2c-1.7,0-5.2,0.4-7,0.6l-0.6,8.9c2,0.6,3.9,0.9,6.1,0.9c2.4,0,4.8-0.4,7-1.1c1.7,2.6,3,6.1,3.9,10
		c-12,12-23.5,24.1-23.5,40c0,8.7,5.2,14.8,13.3,14.8c18.9,0,29.8-20.4,29.8-40c0-7.2-1.5-14.1-4.6-20c9.2-9.9,19-21.1,27.3-35.3
		c-0.1,1.4-0.1,2.8-0.1,4.2c0,15.9,4.4,27.6,15,27.6c12.6,0,20.2-11.5,25.2-24.8c0,1.1,0.1,2,0,2.8c-3.2,35.3,14,36.2,43.1,15
		c0,0,6.8-5.4,8.7-25.5C467.2,299.5,462.1,304.6,462.1,304.6z M258.8,398.6c-2.8,0-4.1-2-4.1-5.2c0-9.1,6.3-21.1,15.2-31.1
		c0,1.7,0.2,3.3,0.2,5C270.1,382.8,265.6,398.6,258.8,398.6z M322.3,398.6c-2.8,0-4.1-2-4.1-5.2c0-9.1,6.3-21.1,15.2-31.1
		c0,1.7,0.2,3.3,0.2,5C333.6,382.8,329,398.6,322.3,398.6z M396.8,325.6c-3.3,0-4.6-4.6-4.6-11.3c0-19.8,11.1-58,20.2-58
		c4.8,0,6.7,5.6,6.7,13.7C419.2,290.2,406.8,325.6,396.8,325.6z"/>
	<path class="st0" d="M261.7,228.6H356c0,0,0,0,0.1,0c0,0,0,0,0.1,0h107.6c0.6,0,1.3-0.3,1.7-0.7s0.7-1.1,0.7-1.7
		c0-0.6-0.7-16.2-7.4-35.2c-6.2-17.7-18.9-41.7-44.5-55.8c-1.1-0.6-2.5-0.3-3.1,0.8l-54.1,84.7L332.9,129c-0.2-0.6-0.6-1.1-1.1-1.5
		c-0.6-0.3-1.2-0.4-1.8-0.2c-27.6,8.1-48.6,27.8-60.6,56.9c-9,21.9-9.9,41.1-9.9,41.9c0,0.6,0.2,1.3,0.7,1.7
		C260.5,228.3,261.1,228.6,261.7,228.6z M413.8,140.3c39.4,23.2,46.2,72,47.3,83.6h-4.8c-6.5-45.2-36.6-72.1-45.4-79L413.8,140.3z
		 M408.7,148.2c8.6,6.9,37.1,32.6,43.5,75.6h-91.8L408.7,148.2z M275.6,223.9c1.8-11.9,12.6-69.4,56.9-77.4l20.3,77.4H275.6z
		 M273.7,185.9c11.3-27.3,24.6-41.2,55.2-53.3l2.4,9.1c-21.6,4-38.9,19.5-50.1,44.9c-7.3,16.6-9.9,32.3-10.6,37.3h-6.3
		C264.8,218,266.8,202.6,273.7,185.9z"/>
	<path class="st0" d="M358.3,194.8c0.3,1,1.2,1.8,2.3,1.8h0.1c0.8,0,1.6-0.4,2-1.1l56.9-89.1c0.4-0.6,0.5-1.2,0.3-1.9
		c-0.2-0.6-0.6-1.2-1.1-1.5c-14.6-8.1-31.9-12.2-51.5-12.2c-11.8,0-22.8,1.5-32.8,4.4c-1.2,0.4-2,1.6-1.6,2.9L358.3,194.8z
		 M361.5,188.5l-20.8-79.3c6.9-2.1,34.5-9.1,68.7,4.4L361.5,188.5z M367.3,95.6c17.8,0,33.5,3.5,46.9,10.4l-2.6,4.1
		c-35.8-14.3-64.1-7.3-71.9-4.8l-1.6-6.1C350.2,95.6,356.8,95.6,367.3,95.6z"/>
	<ellipse class="st0" cx="329.5" cy="216.1" rx="4.5" ry="4.5"/>
	<ellipse class="st0" cx="372" cy="123.1" rx="10" ry="11.2"/>
	<ellipse class="st0" cx="401.7" cy="204.9" rx="10" ry="11.2"/>
	<path class="st0" d="M408.6,180.6c2-2,2.5-4.7,1.1-6.2s-4.2-1.1-6.3,0.9c-2,2-2.5,4.7-1.1,6.2C403.8,182.9,406.6,182.5,408.6,180.6
		z"/>
	
		<ellipse transform="matrix(0.3964 -0.9181 0.9181 0.3964 20.8673 392.1135)" class="st0" cx="308.63" cy="180.19" rx="9.2" ry="13.1"/>
	<ellipse class="st0" cx="363.2" cy="157.7" rx="5.7" ry="4.4"/>
	<path class="st0" d="M391.6,117.9c-4.1,0-7.4,2.5-7.4,5.8c0,0.8,0.7,1.5,1.5,1.5s1.5-0.7,1.5-1.5c0-1.5,2.1-2.8,4.4-2.8
		s4.4,1.3,4.4,2.8c0,0.8,0.7,1.5,1.5,1.5s1.5-0.7,1.5-1.5C399,120.4,395.8,117.9,391.6,117.9z"/>
	<path class="st0" d="M380.6,208c-1.6,0-3,1.3-3,2.9c0,1.6,1.3,3,3,3s3-1.3,3-3C383.6,209.3,382.2,208,380.6,208z"/>
	<path class="st0" d="M292,197.3c0.4-0.7,0.2-1.6-0.5-2.1c-0.7-0.4-1.6-0.2-2.1,0.5c-2.1,3.2-4.3,10.8,2,16.4c0.3,0.2,0.6,0.4,1,0.4
		s0.8-0.2,1.1-0.5c0.5-0.6,0.5-1.6-0.1-2.1C287.5,204.7,291.8,197.6,292,197.3z"/>
	<path class="st0" d="M333.9,185.5l-3.1-3.9c-0.5-0.6-1.5-0.8-2.1-0.2c-0.6,0.5-0.8,1.5-0.2,2.1l3.2,4l-3.6,3.2
		c-0.6,0.6-0.7,1.5-0.1,2.1c0.3,0.3,0.7,0.5,1.1,0.5s0.7-0.1,1-0.4l3.5-3.1l2.7,3.3c0.3,0.4,0.7,0.6,1.2,0.6c0.3,0,0.7-0.1,0.9-0.3
		c0.6-0.5,0.8-1.5,0.2-2.1l-2.8-3.4l3.5-3.1c0.6-0.6,0.7-1.5,0.1-2.1c-0.5-0.6-1.5-0.7-2.1-0.1L333.9,185.5z"/>
	<path class="st0" d="M418.3,186.7c-0.7-0.4-1.6-0.2-2,0.5s-0.2,1.6,0.5,2.1c0.1,0,6.4,3.9,6.7,10.4c0,0.8,0.7,1.4,1.5,1.4
		c0,0,0,0,0.1,0c0.8,0,1.5-0.8,1.4-1.6C426.1,191.4,418.6,186.8,418.3,186.7z"/>
	<path class="st0" d="M369.6,140.9c-6.6,2.1-9.2-5-9.3-5.3c-0.3-0.8-1.1-1.2-1.9-0.9s-1.2,1.1-0.9,1.9c1,3,4.3,7.7,9.8,7.7
		c1,0,2.1-0.2,3.3-0.5c0.8-0.2,1.2-1.1,1-1.9C371.3,141.1,370.4,140.7,369.6,140.9z"/>
	<path class="st0" d="M314,201c-6.6,2.1-9.2-5-9.3-5.3c-0.3-0.8-1.1-1.2-1.9-0.9s-1.2,1.1-0.9,1.9c1,2.9,4.3,7.7,9.8,7.7
		c1,0,2.1-0.2,3.3-0.5c0.8-0.2,1.2-1.1,1-1.9S314.8,200.7,314,201z"/>
	<path class="st0" d="M438.1,214h-9.9c-0.8,0-1.5,0.7-1.5,1.5s0.7,1.5,1.5,1.5h9.9c0.8,0,1.5-0.7,1.5-1.5
		C439.6,214.6,438.9,214,438.1,214z"/>
	<path class="st0" d="M308.2,212.4h-9.9c-0.8,0-1.5,0.7-1.5,1.5s0.7,1.5,1.5,1.5h9.9c0.8,0,1.5-0.7,1.5-1.5
		C309.7,213.1,309,212.4,308.2,212.4z"/>
</g>
</svg>
