<?xml version="1.0" encoding="utf-8"?>
<!-- Generator: Adobe Illustrator 25.0.1, SVG Export Plug-In . SVG Version: 6.00 Build 0)  -->
<svg version="1.1" id="Calque_1" xmlns="http://www.w3.org/2000/svg" xmlns:xlink="http://www.w3.org/1999/xlink" x="0px" y="0px"
	 viewBox="0 0 90 90" style="enable-background:new 0 0 90 90;" xml:space="preserve">
<style type="text/css">
	.st0{fill:#FFFFFF;}
	.st1{fill:none;stroke:#6D184E;stroke-width:1.8726;stroke-miterlimit:10;}
	.st2{fill:#6D184E;}
	.st3{fill:none;stroke:#6D184E;stroke-width:1.8726;stroke-linecap:round;stroke-linejoin:round;stroke-miterlimit:10;}
	.st4{fill:none;stroke:#FFFFFF;stroke-width:3;stroke-linecap:round;stroke-linejoin:round;stroke-miterlimit:10;}
	.st5{fill:none;stroke:#FFFFFF;stroke-width:1.4324;stroke-linecap:round;stroke-linejoin:round;stroke-miterlimit:10;}
	.st6{fill:none;stroke:#FFFFFF;stroke-width:3.4717;stroke-linecap:round;stroke-linejoin:round;stroke-miterlimit:10;}
	.st7{fill:none;stroke:#FFFFFF;stroke-width:3.8965;stroke-linecap:round;stroke-linejoin:round;stroke-miterlimit:10;}
	.st8{fill:none;stroke:#4C4343;stroke-width:3.4717;stroke-linecap:round;stroke-linejoin:round;stroke-miterlimit:10;}
	.st9{fill:none;stroke:#4C4343;stroke-width:3.8965;stroke-linecap:round;stroke-linejoin:round;stroke-miterlimit:10;}
</style>
<g>
	<circle class="st0" cx="44.79" cy="44.5" r="36.12"/>
	<g>
		<path class="st3" d="M30.3,48.07l4.57,15.01c0,0,5.15,4,19.73,0.71l4.43-15.73C59.03,48.07,46.17,54.22,30.3,48.07z"/>
		<path class="st3" d="M44.67,23.91c0,0-5.65-0.43-7.51,10.29c0,0,5.72,1.14,14.01-2.43c0,0-0.43-3.86-3.72-5
			C44.17,25.63,44.67,23.91,44.67,23.91z"/>
		<path class="st3" d="M45.38,41.57c-4.5,0.86-12.51,1.22-12.51,1.22s-0.14-6.15,4.29-8.58"/>
		<path class="st3" d="M49.81,40.78c2.99-0.53,6.08-2.29,6.08-2.29s-1.86-5.86-4.72-6.72"/>
		<path class="st3" d="M59.03,48.07c0,0,1.57-2.86-3.15-9.58"/>
		<path class="st3" d="M32.87,42.78c0,0-2.29,0.86-2.57,5.29"/>
		<line class="st3" x1="37.16" y1="54.15" x2="38.38" y2="60.79"/>
		<line class="st3" x1="51.96" y1="54.15" x2="51.17" y2="60.79"/>
		<line class="st3" x1="44.67" y1="54.15" x2="44.67" y2="57.47"/>
		<line class="st3" x1="44.67" y1="60.36" x2="44.67" y2="62.03"/>
	</g>
</g>
</svg>
