<?xml version="1.0" encoding="utf-8"?>
<!-- Generator: Adobe Illustrator 25.0.1, SVG Export Plug-In . SVG Version: 6.00 Build 0)  -->
<svg version="1.1" id="Calque_1" xmlns="http://www.w3.org/2000/svg" xmlns:xlink="http://www.w3.org/1999/xlink" x="0px" y="0px"
	 viewBox="0 0 90 90" style="enable-background:new 0 0 90 90;" xml:space="preserve">
<style type="text/css">
	.st0{fill:#FFFFFF;}
	
		.st1{fill-rule:evenodd;clip-rule:evenodd;fill:none;stroke:#FFFFFF;stroke-width:3.4808;stroke-linecap:round;stroke-linejoin:round;stroke-miterlimit:10;}
	.st2{fill:none;stroke:#FFFFFF;stroke-width:3.4808;stroke-linecap:round;stroke-linejoin:round;stroke-miterlimit:10;}
</style>
<g>
	<path class="st0" d="M54.32,66.59H35.6c-6.82,0-12.37-5.55-12.37-12.37V35.5c0-6.82,5.55-12.37,12.37-12.37h18.72
		c6.82,0,12.37,5.55,12.37,12.37v18.72C66.69,61.04,61.14,66.59,54.32,66.59z M35.6,26.85c-4.77,0-8.65,3.88-8.65,8.65v18.72
		c0,4.77,3.88,8.65,8.65,8.65h18.72c4.77,0,8.65-3.88,8.65-8.65V35.5c0-4.77-3.88-8.65-8.65-8.65H35.6z"/>
	<path class="st0" d="M44.96,55.99c-6.14,0-11.13-4.99-11.13-11.13c0-6.14,4.99-11.13,11.13-11.13c6.14,0,11.13,4.99,11.13,11.13
		C56.09,51,51.1,55.99,44.96,55.99z M44.96,37.46c-4.08,0-7.4,3.32-7.4,7.4c0,4.08,3.32,7.4,7.4,7.4c4.08,0,7.4-3.32,7.4-7.4
		C52.36,40.78,49.04,37.46,44.96,37.46z"/>
	<path class="st0" d="M59.24,33.09c0,1.48-1.2,2.67-2.67,2.67c-1.48,0-2.68-1.2-2.68-2.67c0-1.48,1.2-2.68,2.68-2.68
		C58.04,30.42,59.24,31.62,59.24,33.09z"/>
</g>
</svg>
